Coordinates
version=1
nRows=7
nColumns=40
inDegrees=yes

Units are S.I. units (second, meters, Newtons, ...)
If the header above contains a line with 'inDegrees', this indicates whether rotational values are in degrees (yes) or radians (no).

endheader
time	pelvis_tilt	pelvis_list	pelvis_rotation	pelvis_tx	pelvis_ty	pelvis_tz	hip_flexion_r	hip_adduction_r	hip_rotation_r	knee_angle_r	knee_angle_r_beta	ankle_angle_r	subtalar_angle_r	mtp_angle_r	hip_flexion_l	hip_adduction_l	hip_rotation_l	knee_angle_l	knee_angle_l_beta	ankle_angle_l	subtalar_angle_l	mtp_angle_l	lumbar_extension	lumbar_bending	lumbar_rotation	arm_flex_r	arm_add_r	arm_rot_r	elbow_flex_r	pro_sup_r	wrist_flex_r	wrist_dev_r	arm_flex_l	arm_add_l	arm_rot_l	elbow_flex_l	pro_sup_l	wrist_flex_l	wrist_dev_l
     15.22499999999999964473	     12.74350804368326883775	     -3.25354852107623360169	   -178.51361562198749766139	      0.31267395056120372843	      0.71167539519399136694	     -0.95130190983475648725	     69.45355045667156446143	    -47.76652035658131723039	     -9.43993181256715629956	     62.87461185969071664204	      1.09736899286507805229	     -2.49765092257690213273	      0.00000000000000000000	      0.00000000000000000000	     62.99787269422454727419	    -39.84402431811636091652	    -12.39626538506792385874	     61.77347194937751595489	      1.07815047590499757391	      2.50002066923871346660	      0.00000000000000000000	      0.00000000000000000000	    -64.88902244729688106872	      0.85189621767981282829	     -2.19120350872755231819	     61.90641415090878751926	    -11.59511053828586923942	     47.61756856972664309069	      4.31215955185760702051	     47.65838435983327769918	      0.00000000000000000000	      0.00000000000000000000	     68.71133311727398051971	    -14.57303665868446529430	     51.42904283013454147522	     16.69932266485986716020	     76.87013361458976135054	      0.00000000000000000000	      0.00000000000000000000
     15.23000000000000042633	     12.61341411596998440814	     -3.28409288037148483497	   -178.60647220773628873758	      0.31321667817490361774	      0.70933959905275034696	     -0.95148740319957370026	     69.94833192218113993022	    -47.75666870697553889613	     -8.90023657656736766342	     63.38342550979077572038	      1.10624946633841436672	     -2.26253597290442964862	      0.00000000000000000000	      0.00000000000000000000	     63.27212018238562762917	    -40.08709055206821147976	    -12.27056209379614593047	     62.30950919560671508179	      1.08750609076502069428	      2.60205308526152867543	      0.00000000000000000000	      0.00000000000000000000	    -64.60113454389590970095	      0.69737454132602227919	     -2.12554915131412336393	     61.57209417936041973007	    -11.67421414910133314891	     46.88134456797048699173	      4.59270232549684376266	     47.69624544981270020116	      0.00000000000000000000	      0.00000000000000000000	     68.40382669253101255435	    -14.70139353256562131378	     51.46903593328519832539	     17.00812153176849150782	     77.86104760936331103949	      0.00000000000000000000	      0.00000000000000000000
     15.23499999999999943157	     12.27243079219928034718	     -3.25239894038543786436	   -178.60085307035743085180	      0.31351769597587553218	      0.70780805860089845982	     -0.95152231540236564822	     69.93158241491167359527	    -47.89130708164333327659	     -8.77413199479116734381	     63.76932839871378888574	      1.11298474234307898101	     -2.18576956627861829219	      0.00000000000000000000	      0.00000000000000000000	     63.28414706270319101122	    -40.22971523005114846683	    -12.07895442256125839720	     62.70195515116415663215	      1.09435556482563334235	      2.79954447242183945832	      0.00000000000000000000	      0.00000000000000000000	    -64.58891908193942299476	      0.71612568320977898484	     -2.16375010401596190590	     61.33199054848058295875	    -11.56265563688533681841	     46.82909921163037836322	      4.56399548861044745962	     47.70979673562116829544	      0.00000000000000000000	      0.00000000000000000000	     68.18709778972174717637	    -14.73869402851801702070	     51.47980086312781367042	     16.94781208565217767159	     78.00235120898044272053	      0.00000000000000000000	      0.00000000000000000000
     15.24000000000000021316	     11.91459583957321832770	     -3.23942722420217465995	   -178.59181845755281869970	      0.31397060300153689649	      0.70628502451096997206	     -0.95146750234322852169	     69.88208263036015921443	    -47.99256109860996133420	     -8.57347465931015406682	     64.06290587118721191473	      1.11810863584742326005	     -2.11881361942613333227	      0.00000000000000000000	      0.00000000000000000000	     63.26349722918246953896	    -40.28863931305541257188	    -11.78785074116526843113	     63.03648923186938901608	      1.10019428599407209646	      2.92897809512613127580	      0.00000000000000000000	      0.00000000000000000000	    -64.57833001732065270062	      0.72354993134243605901	     -2.20149078916599938438	     61.13279249937171044849	    -11.53098770766504266305	     46.79181530698738811225	      4.55675276613347435273	     47.71964578575621374057	      0.00000000000000000000	      0.00000000000000000000	     67.93325686957945208633	    -14.75190431150980252539	     51.48940509391500341962	     16.90273233584697010201	     78.05947432184849787973	      0.00000000000000000000	      0.00000000000000000000
     15.24499999999999921840	     11.55989460197084461868	     -3.19909144794242861209	   -178.58597266504514777807	      0.31423966686492377232	      0.70464580033840928941	     -0.95150468840900981338	     69.89646519650101197385	    -48.13309194453534445302	     -8.40907258233294996330	     64.53977653996651042689	      1.12643159912380941279	     -1.97607586740644358692	      0.00000000000000000000	      0.00000000000000000000	     63.31781397685617207571	    -40.47707907577312624881	    -11.59967837931629119907	     63.50997197346172384869	      1.10845811878622790836	      3.13437705625471174642	      0.00000000000000000000	      0.00000000000000000000	    -64.56243506430723755329	      0.73245255152046384595	     -2.23942273202609865024	     60.99117209209929768576	    -11.52781710714297425113	     46.72431894081397985019	      4.55108577055841934111	     47.71901828094674158365	      0.00000000000000000000	      0.00000000000000000000	     67.70896561281320202852	    -14.79765526634587402555	     51.47305120049065152443	     16.87332639791251764905	     78.13034177865506535454	      0.00000000000000000000	      0.00000000000000000000
     15.25000000000000000000	     11.50312392030228636486	     -3.20521153641564371384	   -178.70069855734243446932	      0.31483649936601865171	      0.70222930798071070413	     -0.95174038949940553689	     70.41283535422205375198	    -48.06921903548627028613	     -7.94309160819111692575	     65.00429714311323436959	      1.13453901309206961479	     -1.63964150424980270593	      0.00000000000000000000	      0.00000000000000000000	     63.69971688639425622114	    -40.76024390265338581685	    -11.46504075883489193188	     64.04657913340257380241	      1.11782368051697145184	      3.15773750596518798517	      0.00000000000000000000	      0.00000000000000000000	    -64.20965004103855733320	      0.60096112252178335300	     -2.19721302476247926094	     60.71239589796416424861	    -11.48184080446767119099	     46.35091903042660987921	      4.58391857923770995598	     47.71011997263160253624	      0.00000000000000000000	      0.00000000000000000000	     67.35542986515095265077	    -14.94819483496162959568	     51.05505184128357853979	     17.18613451806701419855	     78.71262741283464947628	      0.00000000000000000000	      0.00000000000000000000
     15.25500000000000078160	     11.16398889808003147550	     -3.18186292743285292772	   -178.67791030166557675329	      0.31514827313650389806	      0.70078377666865643292	     -0.95171526281121932023	     70.39656609118925700841	    -48.21289155399913539668	     -7.78762703844403691988	     65.37442025982699078668	      1.14099888011646788399	     -1.60016349730826434872	      0.00000000000000000000	      0.00000000000000000000	     63.69982092997616973662	    -40.84641167049334598005	    -11.23112462606504635687	     64.39913034816621006939	      1.12397685999650254196	      3.35677491346182232945	      0.00000000000000000000	      0.00000000000000000000	    -64.20694705295909443521	      0.63279631352588494586	     -2.23313704410796454169	     60.51182194039217421277	    -11.41281405086556688389	     46.30794417311076216492	      4.57077073415294599101	     47.71392708915146130266	      0.00000000000000000000	      0.00000000000000000000	     67.15295878000803497798	    -14.96951992682981469329	     51.02575225796690006064	     17.13247565521544402145	     78.78419069879166158898	      0.00000000000000000000	      0.00000000000000000000
